<?xml version="1.0" encoding="UTF-8"?>
<svg id="Camada_1" data-name="Camada 1" xmlns="http://www.w3.org/2000/svg" version="1.1" viewBox="0 0 199 30">
  <defs>
    <style>
      .cls-1 {
        fill: #efa144;
      }

      .cls-1, .cls-2 {
        stroke-width: 0px;
      }

      .cls-2 {
        fill: #fff;
      }
    </style>
  </defs>
  <path class="cls-1" d="M32.1,12.8H10.4c-.7,0-1-.8-.6-1.3.3-.4.5-.8.8-1.1l2.4-3.5c.3-.5,1.1-.5,1.4,0l2.8,3.9h6.4L17.1,1.9C16.3.9,15.3,0,13.6,0s-2.7.8-3.4,1.9L.2,15.9c-.4.6,0,1.3.7,1.3h21.7c.7,0,1,.8.6,1.3-.3.4-.5.8-.8,1.1l-2.4,3.5c-.3.5-1.1.5-1.4,0l-2.8-3.9h-6.4l6.5,9c.7,1,1.8,1.9,3.5,1.9s2.7-.8,3.4-1.9l9.9-14c.4-.6,0-1.3-.7-1.3h0Z"/>
  <path class="cls-2" d="M53.1,24.3v.2c0,.7,0,2,0,2.4,0,.9-.6,1.4-1.5,1.6-.8.2-1.6.2-3.7.2s-3.5-.1-4.2-.5c-.7-.4-.8-1-.8-3.5,0-3.5.3-3.8,5.4-3.8s4,.2,4.5.8c.3.4.4.8.4,2h-2.4c0-.4,0-.5-.2-.6-.2-.2-.8-.2-2.6-.2-2.8,0-2.8,0-2.8,2s0,1.7.3,1.9c.2.2.4.2,1.1.2h1.4c2.8,0,2.8,0,2.8-.8v-.2h-3.1v-1.5h5.4Z"/>
  <path class="cls-2" d="M61.9,27.3h-5.2l-.7,1.3h-2.7l4.1-7.6h3.7l4.1,7.6h-2.7l-.7-1.3h0ZM59.5,22.8h-.5l-1.5,2.9h3.5l-1.5-2.9h0Z"/>
  <path class="cls-2" d="M70,21l2.3,4.9,2.3-4.9h4.3v7.6h-2.3v-5.7c0,0-.3,0-.3,0l-2.9,5.7h-2l-2.9-5.7h-.4v5.7c0,0-2.3,0-2.3,0v-7.6h4.3Z"/>
  <path class="cls-2" d="M82.6,21v7.6h-2.5v-7.6h2.5Z"/>
  <path class="cls-2" d="M88,21l4.1,5.6h.2v-5.6c0,0,2.4,0,2.4,0v7.6h-4.1l-4.1-5.7h-.3v5.7c0,0-2.4,0-2.4,0v-7.6h4.2Z"/>
  <path class="cls-2" d="M106,24.3v.2c0,.7,0,2,0,2.4,0,.9-.6,1.4-1.5,1.6-.8.2-1.6.2-3.7.2s-3.5-.1-4.2-.5c-.7-.4-.8-1-.8-3.5,0-3.5.3-3.8,5.4-3.8s4,.2,4.5.8c.3.4.4.8.4,2h-2.4c0-.4,0-.5-.2-.6-.2-.2-.8-.2-2.6-.2-2.8,0-2.8,0-2.8,2s0,1.7.3,1.9c.2.2.4.2,1.1.2h1.4c2.8,0,2.8,0,2.8-.8v-.2h-3.1v-1.5h5.4Z"/>
  <path class="cls-2" d="M63,11c0-.7-.3-1.3-.7-1.9-.8-1.3-2.3-2.1-3.8-2.1h-10.7c0,0-.2,0-.2,0-.7-.1-1.2-.8-1.2-1.5,0-.4.1-.7.4-1,.2-.3.5-.5.9-.5,0,0,.2,0,.3,0h15.2V.7h-15.8c0,0-.1,0-.2,0-2.2,0-4.1,1.7-4.5,3.9h0c0,.3,0,.6,0,.9v.3c0,.2,0,.4,0,.6h0c.2,1.1.7,2,1.4,2.8.8.8,1.9,1.2,3,1.2h10.8c0,0,.2,0,.2,0,.5,0,1,.5,1.1,1,0,.1,0,.3,0,.4h0c0,.1,0,.1,0,.1,0,.7-.6,1.3-1.3,1.4,0,0-.2,0-.3,0h-15.2v3.3h15.9c0,0,.1,0,.2,0,2.2,0,4.1-1.8,4.5-4,0-.2,0-.4,0-.7,0,0,0-.1,0-.2h0c0,0,0-.1,0-.2,0,0,0-.1,0-.2,0-.1,0-.3,0-.4h0Z"/>
  <path class="cls-2" d="M81.7,10.6c0,.7-.3,1.4-.8,2-.5.5-1.2.8-1.9.8h-7.2c-.7,0-1.4-.3-1.9-.8-.5-.5-.8-1.2-.8-2V.7h-3.9v12.2s0,0,0,.1c0,1,.4,1.9,1,2.5.7.7,1.6,1.1,2.6,1.1h13.1c1,0,1.9-.4,2.6-1.1.6-.7,1-1.6,1-2.5,0,0,0,0,0-.1V.7h-3.9v9.9h0Z"/>
  <path class="cls-2" d="M128.1,12l.5-.3c1.3-.7,2.2-1.9,2.7-3.3,0-.3.1-.5.2-.8h0c0-.3,0-.6,0-.8,0,0,0-.1,0-.2s0-.2,0-.2h0c0-.3,0-.5,0-.8h0c0-.3-.1-.5-.2-.8-.2-.5-.4-1-.7-1.5-.8-1.3-2.2-2.2-3.6-2.5-.4,0-.7-.1-1.1-.1h-15.2v16h4.2v-3.5c0-.4.3-.8.7-.8h8.5c.2,0,.5.1.6.3l2.5,3.9h3.8l-3-4.7h0ZM127.7,6.6h0c0,.2,0,.3,0,.4h0c0,.2,0,.3,0,.4-.3.9-1,1.6-1.9,1.7-.1,0-.3,0-.4,0,0,0,0,0,0,0h-9.5c-.4,0-.7-.3-.7-.8v-3.7c0-.4.3-.8.7-.8h9.5c.2,0,.3,0,.5,0,.6.1,1.2.5,1.6,1.1.1.2.2.4.3.7,0,.1,0,.2,0,.3h0c0,.1,0,.2,0,.3,0,0,0,0,0,0h0c0,0,0,0,0,0Z"/>
  <path class="cls-2" d="M137.1.7c-.9,0-1.8.4-2.5,1.1-.7.7-1.1,1.7-1.1,2.6v8.4c0,2,1.6,3.7,3.5,3.8h.3s14.7,0,14.7,0v-3.3h-13.8c-.4,0-.7-.3-.7-.7v-1.5c0-.2,0-.4.2-.5.1-.1.3-.2.5-.2h11.6v-3.3h-11.6c-.4,0-.7-.3-.7-.7v-1.5c0-.2,0-.4.2-.5.1-.1.3-.2.5-.2h13.9V.7h-15s0,0,0,0Z"/>
  <path class="cls-2" d="M165.5,11.1c-.1.2-.4.4-.6.4s-.5-.1-.6-.4l-5.8-10.4h-4.1v16h4.1s0-6.9,0-6.9c0-.3.2-.6.5-.7.3,0,.6,0,.8.3l3.2,5.7c.3.4.6.8.9,1.2.3.2.6.4,1,.4.4,0,.7-.2,1-.4.4-.3.7-.7.9-1.2l3.2-5.7c.2-.3.5-.4.8-.3.3,0,.5.4.5.7v6.9c0,0,3.9,0,3.9,0h.1V.7h-4.1l-5.8,10.4h0Z"/>
  <path class="cls-2" d="M108.5,8.4c0-.3.1-.5.2-.8h0c0-.3,0-.6,0-.8,0,0,0-.2,0-.2h0c0,0,0-.2,0-.2,0-.3,0-.6,0-.8h0c0-.3,0-.5-.2-.8-.2-.5-.4-1-.7-1.5-.8-1.3-2.1-2.2-3.6-2.4-.3,0-.7-.1-1.1-.1h-15.3v8s0,8,0,8h3.9v-3.5c0-.4.4-.7.8-.7h10.5c0,0,.1,0,.2,0,.3,0,.6,0,.9-.1,2-.4,3.7-1.9,4.3-3.9h0ZM102.8,9.1c-.1,0-.3,0-.4,0h0s0,0,0,0h-9.8c-.4,0-.7-.3-.7-.8v-3.7c0-.4.3-.8.7-.8h9.9c.2,0,.3,0,.5,0,.6.1,1.2.5,1.6,1.1.1.2.2.4.3.7,0,.1,0,.2,0,.3h0c0,.1,0,.2,0,.3,0,0,0,0,0,0h0c0,0,0,.1,0,.1,0,.1,0,.2,0,.3h0c0,.1,0,.3,0,.4-.3.9-1,1.6-1.9,1.7h0Z"/>
  <path class="cls-2" d="M190.2,2.3c-.3-.4-.6-.8-1-1.2-.3-.3-.7-.4-1.3-.4-.5,0-.9.2-1.3.4-.4.3-.8.7-1,1.2l-8.8,14.4h4.2l1.6-2.7h10.4l1.6,2.7h4.2l-8.8-14.4h0ZM184.6,10.7l2.2-3.7s0,0,0,0c.4-.7,1.5-.7,1.9,0,0,0,0,0,0,0l2.2,3.7h-6.4Z"/>
</svg>